# xmcd CD database file generated by libcdaudio 0.99.6
# 
# Track frame offsets:
#       150
#       25037
#       59968
#       124204
#       138395
#       150493
#       172901
#       190776
#       209869
#       235839
#       252656
#       270830
#       301577
#       321059
# 
# Disc length: 4650 seconds
# 
# Revision: 1
# Processed by: cddbd v1.4PL0 Copyright (c) Steve Scherf et al.
# Submitted via: libcdaudio 0.99.6
# 
DISCID=c212280e
DTITLE=Various Artist - UP 13 Changing Platforms CD B
DYEAR=1900
DGENRE=
TTITLE0=Gicinto Scelsi - Canti del capricorno (extract)
TTITLE1=Olivier Messiaen - Des canyons aux etoiles (extract)
TTITLE2=Cornelius Cardew - Boolavogue
TTITLE3=Gyorgy Kurtag - Scenes from a Novel Op 19 (extract)
TTITLE4=Michael Nyman Band - In re Don Giovanni
TTITLE5=Iannis Xenakis - Echange (extract)
TTITLE6=Meredith Monk - Facing North (extract) Long Shadow 2
TTITLE7=Bill Frisell Band with Don Byron - Billy in Prison - No Moe
TTITLE8=John Adams - Chamber Symphony, 3rd movement, Roadrunner
TTITLE9=John McLaughlin - Lotus Feet (extract)
TTITLE10=Giacomo Puccini - Nessun dorma
TTITLE11=Erkki-Sven Tuur - Passion
TTITLE12=Yat-Kha - Bai-la mongun (extract), Oy adym (extract)
TTITLE13=La Banda - Largo al factotum (Rossini)
EXTD=
EXTT0=
EXTT1=
EXTT2=
EXTT3=
EXTT4=
EXTT5=
EXTT6=
EXTT7=
EXTT8=
EXTT9=
EXTT10=
EXTT11=
EXTT12=
EXTT13=
PLAYORDER=
